<?xml version="1.0" encoding="UTF-8"?>
<svg id="Ebene_1" data-name="Ebene 1" xmlns="http://www.w3.org/2000/svg" viewBox="0 0 907.09 907.09" width="60" height="60">
  <defs>
    <style>
      .cls-1 {
        fill: #d0c1a1;
      }

      .cls-2 {
        fill: #1a171b;
      }

      .cls-3 {
        fill: #ba0b1b;
      }
    </style>
  </defs>
  <rect class="cls-2" width="907.09" height="907.09"/>
  <g>
    <path class="cls-3" d="M143.26,509.16c-3.98,0-8.11-3.18-9.53-7l-27.34-76.26v75.79c0,4.13-3.18,7.47-7.31,7.47h-13.98c-4.13,0-7.3-3.34-7.3-7.47v-96.29c0-4.13,3.17-7.46,7.15-7.46h31.62c4.12,0,8.1,3.33,9.37,7.31l22.88,66.26,22.88-66.26c1.27-3.97,5.25-7.31,9.38-7.31h31.62c3.97,0,7.14,3.33,7.14,7.46v96.29c0,4.13-3.17,7.47-7.31,7.47h-13.98c-4.13,0-7.31-3.34-7.31-7.47v-75.79l-27.32,76.26c-1.42,3.82-5.57,7-9.54,7h-11.12ZM252.42,428.12c6.52-24.62,28.92-30.19,51.49-30.19h41.78c3.82,0,6.68,3.33,6.68,7.15v96.92c0,3.98-3.33,7.15-7.31,7.15h-14.62c-4.13,0-7.3-3.18-7.3-7.32v-19.54h-55.14l-5.25,19.54c-1.1,4.14-5.08,7.32-9.21,7.32h-15.25c-4.13,0-6.52-3.18-5.4-7.15l19.54-73.88ZM273.7,460.38h49.42v-40.52h-22.09c-10.01,0-17.96,6.04-20.5,15.58l-6.84,24.94Z"/>
    <path class="cls-1" d="M470.89,397.93c4.13,0,7.31,3.18,7.31,7.31v7.32c0,4.13-3.17,7.3-7.31,7.3h-34.63v82.15c0,3.98-3.34,7.15-7.31,7.15h-14.61c-3.97,0-7.31-3.18-7.31-7.15v-82.15h-34.64c-4.13,0-7.31-3.17-7.31-7.3v-7.32c0-4.13,3.17-7.31,7.31-7.31h98.5ZM542.24,395.55c39.72,0,62.44,16.68,62.44,58s-22.72,57.99-62.44,57.99-62.45-16.69-62.45-57.99,22.73-58,62.45-58ZM509.03,453.55c0,23.82,9.37,37.02,33.21,37.02s33.21-13.19,33.21-37.02-9.38-37.03-33.21-37.03-33.21,13.2-33.21,37.03ZM678.65,395.55c39.73,0,62.45,16.68,62.45,58s-22.72,57.99-62.45,57.99-62.44-16.69-62.44-57.99,22.72-58,62.44-58ZM645.45,453.55c0,23.82,9.38,37.02,33.2,37.02s33.22-13.19,33.22-37.02-9.38-37.03-33.22-37.03-33.2,13.2-33.2,37.03ZM778.93,397.93c4.13,0,7.3,3.33,7.3,7.46v81.83h35.75c3.97,0,7.31,3.17,7.31,7.31v7.3c0,4.14-3.34,7.32-7.31,7.32h-57.66c-3.98,0-7.32-3.18-7.32-7.15v-96.61c0-4.13,3.18-7.46,7.32-7.46h14.61Z"/>
  </g>
</svg>